<svg width="71" height="13" viewBox="0 0 71 13" fill="none" xmlns="http://www.w3.org/2000/svg">
<path d="M5.12099 2.80643C5.45921 2.94843 5.75203 3.18042 5.96763 3.47719C6.14438 3.7082 6.26229 3.97873 6.3112 4.26546C6.36202 4.70424 6.38294 5.14597 6.37381 5.58759V9.6069H4.54786V5.44325C4.56113 5.13494 4.49691 4.82823 4.36105 4.55115C4.27157 4.38955 4.1363 4.25803 3.97226 4.17311C3.80822 4.0882 3.62274 4.05368 3.43914 4.07391C3.23606 4.06116 3.0329 4.09762 2.84692 4.18018C2.66094 4.26275 2.49764 4.38898 2.37089 4.54816C2.104 4.94709 1.97601 5.42285 2.00669 5.90184V9.60789H0.218018V0.270981H2.00669V3.35149C2.23268 3.09902 2.51669 2.90531 2.83421 2.78706C3.199 2.65122 3.58549 2.58303 3.97474 2.58583C4.36785 2.58068 4.75788 2.65575 5.12099 2.80643V2.80643Z" fill="#FF6000"/>
<path d="M11.9129 2.90715C12.395 3.12513 12.8049 3.47605 13.0947 3.91875C13.3815 4.3425 13.5678 4.82613 13.6395 5.3328C13.6943 5.78297 13.714 6.23673 13.6983 6.68996H8.71737C8.74519 7.37612 8.9836 7.85716 9.43259 8.13308C9.72997 8.31117 10.0721 8.40039 10.4186 8.3902C10.6981 8.41208 10.9777 8.34888 11.2206 8.2089C11.4635 8.06892 11.6583 7.85871 11.7795 7.60592H13.6052C13.5227 8.07851 13.2902 8.51196 12.9421 8.84209C12.3293 9.50722 11.4717 9.83978 10.3692 9.83978C9.4919 9.85152 8.6386 9.55348 7.95942 8.9981C7.26382 8.43699 6.91602 7.52427 6.91602 6.25994C6.91602 5.07527 7.23003 4.16685 7.85805 3.53468C8.17912 3.21764 8.56186 2.96987 8.98255 2.80672C9.40325 2.64357 9.85295 2.56851 10.3038 2.58618C10.8569 2.57765 11.4054 2.68708 11.9129 2.90715V2.90715ZM9.23783 4.45187C8.96997 4.74475 8.80298 5.11572 8.76134 5.51042H11.8418C11.8402 5.30735 11.797 5.10676 11.7151 4.92094C11.6332 4.73511 11.5142 4.56798 11.3654 4.42977C11.0696 4.17997 10.6918 4.04855 10.3048 4.06085C10.1096 4.04889 9.91394 4.07749 9.73026 4.14483C9.54659 4.21217 9.37884 4.31679 9.23758 4.45212L9.23783 4.45187Z" fill="#FF6000"/>
<path d="M20.0943 3.50264C20.6521 4.09241 20.931 4.95835 20.931 6.10045C20.931 7.305 20.6584 8.22311 20.1131 8.85477C19.8561 9.16113 19.5332 9.40547 19.1685 9.56954C18.8038 9.7336 18.4067 9.81316 18.007 9.80228C17.5197 9.8206 17.0401 9.67718 16.6429 9.39436C16.4136 9.20883 16.2172 8.98612 16.0618 8.73553V12.1214H14.2925V2.76854H16.0054V3.77889C16.1719 3.51243 16.381 3.27502 16.6242 3.0761C17.0349 2.76716 17.5377 2.60575 18.0514 2.61799C18.4352 2.61208 18.8159 2.68791 19.1681 2.84044C19.5203 2.99297 19.836 3.2187 20.0943 3.50264ZM18.722 4.789C18.6002 4.5884 18.4253 4.42537 18.2167 4.31795C18.008 4.21054 17.7737 4.16292 17.5397 4.18035C17.2445 4.1643 16.9523 4.24596 16.7082 4.4127C16.4642 4.57944 16.2818 4.82197 16.1895 5.10277C16.0509 5.50176 15.9864 5.92272 15.9992 6.34491C15.9992 7.13988 16.2124 7.69834 16.6389 8.0203C16.8998 8.21081 17.2162 8.31001 17.5392 8.30252C17.7645 8.31362 17.9888 8.26629 18.1905 8.16513C18.3921 8.06397 18.5641 7.91242 18.6899 7.72517C18.9443 7.27874 19.0807 6.77486 19.0862 6.26108C19.0918 5.7473 18.9663 5.24059 18.7217 4.78875L18.722 4.789Z" fill="#FF6000"/>
<path d="M23.0821 7.42406C23.092 7.67004 23.1779 7.9069 23.328 8.10202C23.5508 8.34035 23.9627 8.45951 24.5637 8.45951C24.8526 8.4723 25.1405 8.41867 25.4054 8.30275C25.493 8.26385 25.5683 8.20174 25.6231 8.12313C25.6779 8.04452 25.7102 7.9524 25.7164 7.85676C25.7227 7.76112 25.7026 7.6656 25.6585 7.58052C25.6144 7.49545 25.5478 7.42407 25.466 7.37412C25.2984 7.26962 24.6748 7.08975 23.5953 6.83454C22.8181 6.64209 22.2705 6.40194 21.9527 6.1141C21.7885 5.95616 21.6607 5.76427 21.5783 5.55183C21.4959 5.33938 21.4609 5.11151 21.4757 4.88413C21.4744 4.57491 21.5403 4.2691 21.669 3.98793C21.7977 3.70676 21.9861 3.45698 22.221 3.25593C22.7179 2.80214 23.4169 2.57516 24.3182 2.57499C25.0492 2.54327 25.7741 2.72026 26.4083 3.08526C26.9469 3.42627 27.2561 4.01504 27.3359 4.85158H25.5472C25.5345 4.65478 25.4669 4.46546 25.3522 4.30505C25.155 4.06258 24.8194 3.94126 24.3456 3.94109C24.0557 3.91673 23.7652 3.98018 23.5119 4.12319C23.4385 4.16841 23.3775 4.23102 23.3342 4.30547C23.2908 4.37992 23.2665 4.46391 23.2634 4.55C23.2585 4.64205 23.2811 4.73348 23.3281 4.81276C23.3751 4.89204 23.4446 4.9556 23.5278 4.99543C24.1351 5.21299 24.7597 5.37878 25.3949 5.49104C25.9863 5.59922 26.5388 5.86115 26.9968 6.25049C27.1692 6.41651 27.305 6.61661 27.3958 6.83804C27.4866 7.05947 27.5302 7.29737 27.524 7.5366C27.5324 7.85268 27.4685 8.1665 27.3371 8.45414C27.2058 8.74178 27.0106 8.99563 26.7663 9.19635C26.2611 9.62497 25.4805 9.83936 24.4243 9.83952C23.3478 9.83952 22.5528 9.61254 22.0394 9.15858C21.7903 8.94471 21.5919 8.67804 21.4587 8.37792C21.3255 8.07781 21.2608 7.7518 21.2693 7.42356L23.0821 7.42406Z" fill="#FF6000"/>
<path d="M28.2341 2.76854H30.0477V9.60776H28.2341V2.76854Z" fill="#FF6000"/>
<path d="M36.8575 3.59059C37.3933 4.31432 37.6643 5.20009 37.6251 6.09971C37.6615 7.03848 37.3962 7.9642 36.8682 8.74124C36.4658 9.25253 35.895 9.60442 35.2575 9.73426C34.6199 9.8641 33.957 9.76346 33.3867 9.45026C33.1236 9.25787 32.8972 9.01983 32.7182 8.74745V9.60701H30.9543V0.252457H32.743V3.65965C32.942 3.36897 33.1976 3.12141 33.4945 2.93175C33.8681 2.70951 34.2981 2.60051 34.7324 2.61799C35.1385 2.59945 35.5431 2.67802 35.9126 2.84717C36.2822 3.01633 36.6061 3.27118 36.8575 3.59059V3.59059ZM35.3627 7.75697C35.6384 7.31852 35.7731 6.80612 35.7487 6.28876C35.7613 5.87881 35.6969 5.47014 35.559 5.08388C35.4675 4.80823 35.2879 4.57036 35.0477 4.40704C34.8076 4.24373 34.5203 4.16406 34.2304 4.18035C33.9402 4.16189 33.652 4.23819 33.4089 4.39773C33.1659 4.55728 32.9813 4.79146 32.8829 5.06501C32.7437 5.45523 32.6793 5.86821 32.6931 6.2823C32.6732 6.79604 32.81 7.30369 33.0854 7.73784C33.2178 7.92921 33.3975 8.08299 33.6071 8.18418C33.8166 8.28536 34.0488 8.33051 34.281 8.31519C34.4942 8.32304 34.7057 8.27579 34.8952 8.178C35.0847 8.08022 35.2458 7.9352 35.3629 7.75697H35.3627Z" fill="#FF6000"/>
<path d="M40.1524 2.76854V6.8912C40.1369 7.19035 40.1836 7.48944 40.2895 7.76964C40.4518 8.11744 40.7702 8.29134 41.2447 8.29134C41.5041 8.31357 41.764 8.25413 41.9879 8.12134C42.2118 7.98855 42.3887 7.78905 42.4936 7.55078C42.6221 7.2126 42.6813 6.85201 42.6675 6.49049V2.76854H44.481V9.60801H42.742V8.64162C42.7254 8.66249 42.684 8.72526 42.6178 8.82993C42.5525 8.93306 42.4724 9.02605 42.38 9.10593C42.146 9.32855 41.8707 9.50332 41.5697 9.62043C41.2742 9.71785 40.9643 9.76455 40.6532 9.75856C39.6429 9.75856 38.963 9.39461 38.6134 8.66672C38.3877 8.10321 38.2874 7.49737 38.3192 6.8912V2.76854H40.1524Z" fill="#FF6000"/>
<path d="M49.4199 2.60854C49.443 2.61078 49.4944 2.61402 49.5737 2.61799V4.45039C49.4607 4.4378 49.3604 4.42953 49.2726 4.42555C49.1849 4.42133 49.1136 4.41909 49.0592 4.41909C48.3396 4.41909 47.8564 4.65336 47.6096 5.12189C47.4486 5.50655 47.3778 5.92295 47.4026 6.33919V9.60826H45.6018V2.76853H47.3082V3.96099C47.498 3.6136 47.7411 3.29816 48.0287 3.02615C48.3991 2.73373 48.8625 2.58443 49.3339 2.60556C49.369 2.60532 49.397 2.60656 49.4199 2.60854V2.60854Z" fill="#FF6000"/>
<path d="M60.7059 2.8776C61.0273 3.05903 61.2972 3.31928 61.4902 3.63382V0.252457H63.3038V9.60776H61.5648V8.66026C61.3523 9.02325 61.0525 9.32735 60.6925 9.5449C60.3174 9.74053 59.898 9.83563 59.4752 9.82091C59.0874 9.82404 58.7039 9.73834 58.3542 9.57041C58.0046 9.40247 57.698 9.15674 57.458 8.85204C56.8924 8.14939 56.601 7.2653 56.6382 6.36404C56.6382 5.19709 56.907 4.27898 57.4446 3.60971C57.6993 3.28411 58.0273 3.02332 58.402 2.8486C58.7766 2.67388 59.1873 2.59018 59.6004 2.60433C59.9865 2.5972 60.3677 2.69143 60.7059 2.8776V2.8776ZM61.1449 7.74977C61.425 7.31527 61.5631 6.80446 61.5402 6.28802C61.5402 5.45148 61.3289 4.85335 60.9064 4.49362C60.6547 4.27896 60.3336 4.16304 60.0029 4.16743C59.7752 4.15238 59.5478 4.19963 59.3449 4.3041C59.1421 4.40858 58.9716 4.56633 58.8517 4.76043C58.6095 5.22115 58.4835 5.73402 58.4846 6.2545C58.4857 6.77498 58.6138 7.28732 58.8579 7.74703C58.9799 7.93306 59.1489 8.08355 59.3478 8.18327C59.5467 8.283 59.7684 8.32842 59.9905 8.31494C60.215 8.32701 60.439 8.28149 60.641 8.1827C60.8431 8.08392 61.0165 7.93515 61.1449 7.75051V7.74977Z" fill="#FF6000"/>
<path d="M54.259 9.61348C54.259 9.61348 54.2716 8.96757 54.259 8.81305C54.009 9.08196 53.7203 9.31206 53.4024 9.49572C53.0028 9.72027 52.5507 9.83472 52.0924 9.82737C51.5311 9.84847 50.982 9.65983 50.5522 9.29822C50.3457 9.10927 50.184 8.87663 50.0789 8.61726C49.9738 8.35789 49.9279 8.07833 49.9445 7.79896C49.9445 6.95994 50.2704 6.35261 50.9221 5.97699C51.4153 5.73282 51.9503 5.58414 52.4988 5.53876L53.1107 5.46423C53.3541 5.44324 53.5937 5.39062 53.8234 5.30772C53.9333 5.2753 54.0299 5.20861 54.0991 5.11738C54.1683 5.02616 54.2066 4.91519 54.2083 4.80069C54.22 4.68596 54.1984 4.57028 54.1461 4.46753C54.0937 4.36477 54.0128 4.2793 53.9131 4.22135C53.6413 4.09976 53.3444 4.04507 53.0471 4.06186C52.8821 4.04467 52.7154 4.06377 52.5586 4.11784C52.4017 4.17192 52.2587 4.25965 52.1394 4.37488C52.0008 4.55737 51.9131 4.77343 51.8855 5.00092H50.1636C50.1779 4.47072 50.3534 3.95746 50.6667 3.52948C51.1403 2.92861 51.9536 2.6281 53.1065 2.62793C53.7989 2.61493 54.4844 2.76729 55.1061 3.07237C55.6887 3.369 55.9801 3.92829 55.9801 4.75025V7.88044C55.9801 8.09757 55.9843 9.30468 55.9927 9.61373L54.259 9.61348ZM54.2025 6.29622C54.0932 6.36465 53.9773 6.42223 53.8567 6.46813C53.7007 6.52225 53.5404 6.56314 53.3775 6.59036L52.9714 6.66489C52.6867 6.70177 52.4099 6.78431 52.1515 6.90934C52.0169 6.98303 51.9058 7.09325 51.8311 7.2273C51.7564 7.36136 51.7211 7.51379 51.7292 7.66705C51.7178 7.78961 51.7351 7.91313 51.7799 8.02781C51.8246 8.14249 51.8955 8.24515 51.9868 8.32762C52.1658 8.46581 52.3871 8.53771 52.6131 8.53108C52.9986 8.53249 53.3751 8.41445 53.6908 8.19321C54.0192 7.96764 54.1897 7.55649 54.2023 6.95977L54.2025 6.29622Z" fill="#FF6000"/>
<path d="M68.4301 9.61348C68.4301 9.61348 68.4427 8.96757 68.4301 8.81305C68.1801 9.08196 67.8914 9.31206 67.5735 9.49572C67.1739 9.72027 66.7218 9.83472 66.2635 9.82737C65.7022 9.84862 65.153 9.65996 64.7233 9.29822C64.5168 9.10926 64.3552 8.87662 64.2501 8.61725C64.1449 8.35788 64.099 8.07833 64.1156 7.79896C64.1156 6.95994 64.4415 6.35261 65.0932 5.97699C65.5864 5.73284 66.1214 5.58415 66.67 5.53876L67.2818 5.46424C67.5252 5.44325 67.7648 5.39064 67.9946 5.30772C68.1044 5.2753 68.201 5.20861 68.2702 5.11739C68.3395 5.02616 68.3777 4.9152 68.3794 4.80069C68.3911 4.68596 68.3695 4.57029 68.3172 4.46753C68.2648 4.36477 68.184 4.2793 68.0843 4.22135C67.8125 4.09976 67.5155 4.04507 67.2182 4.06186C67.0533 4.04467 66.8865 4.06377 66.7297 4.11784C66.5729 4.17192 66.4298 4.25965 66.3105 4.37488C66.1719 4.55738 66.0843 4.77344 66.0566 5.00092H64.3347C64.3491 4.47073 64.5245 3.95747 64.8378 3.52948C65.3115 2.92862 66.1248 2.6281 67.2776 2.62794C67.97 2.61492 68.6555 2.76729 69.2772 3.07237C69.8599 3.369 70.1512 3.92829 70.1512 4.75026V7.88044C70.1512 8.09757 70.1554 9.30468 70.1638 9.61373L68.4301 9.61348ZM68.3737 6.29622C68.2643 6.36464 68.1484 6.42221 68.0278 6.46813C67.8718 6.52225 67.7115 6.56314 67.5486 6.59036L67.1425 6.66489C66.8578 6.70178 66.581 6.78432 66.3226 6.90934C66.188 6.98303 66.077 7.09325 66.0022 7.2273C65.9275 7.36136 65.8922 7.51379 65.9003 7.66705C65.8889 7.78961 65.9062 7.91313 65.951 8.02781C65.9957 8.14249 66.0666 8.24515 66.1579 8.32762C66.3369 8.46581 66.5582 8.53771 66.7842 8.53108C67.1697 8.53249 67.5462 8.41445 67.8619 8.19321C68.1903 7.96764 68.3608 7.55649 68.3734 6.95977L68.3737 6.29622Z" fill="#FF6000"/>
<path d="M29.1122 2.20657C29.6561 2.20657 30.097 1.76567 30.097 1.2218C30.097 0.677926 29.6561 0.23703 29.1122 0.23703C28.5683 0.23703 28.1274 0.677926 28.1274 1.2218C28.1274 1.76567 28.5683 2.20657 29.1122 2.20657Z" fill="#FF6000"/>
</svg>
