<?xml version="1.0" encoding="UTF-8" standalone="no"?>
<svg
   xmlns:dc="http://purl.org/dc/elements/1.1/"
   xmlns:cc="http://creativecommons.org/ns#"
   xmlns:rdf="http://www.w3.org/1999/02/22-rdf-syntax-ns#"
   xmlns:svg="http://www.w3.org/2000/svg"
   xmlns="http://www.w3.org/2000/svg"
   viewBox="0 25 130 50"
   width="130"
   height="50"
   xml:space="preserve"
   id="svg2"
   version="1.1"><metadata
     id="metadata8"><rdf:RDF><cc:Work
         rdf:about=""><dc:format>image/svg+xml</dc:format><dc:type
           rdf:resource="http://purl.org/dc/dcmitype/StillImage" /></cc:Work></rdf:RDF></metadata><defs
     id="defs6"><linearGradient
       id="linearGradient34"
       spreadMethod="pad"
       gradientTransform="matrix(24.818733,9.0332804,9.0332804,-24.818733,266.49585,413.01886)"
       gradientUnits="userSpaceOnUse"
       y2="0"
       x2="1"
       y1="0"
       x1="0"><stop
         id="stop24"
         offset="0"
         style="stop-opacity: 1; stop-color: #bb2322" /><stop
         id="stop26"
         offset="0.1"
         style="stop-opacity: 1; stop-color: #bb2322" /><stop
         id="stop28"
         offset="0.6"
         style="stop-opacity: 1; stop-color: #e31f2d" /><stop
         id="stop30"
         offset="0.7"
         style="stop-opacity: 1; stop-color: #e31f2d" /><stop
         id="stop32"
         offset="1"
         style="stop-opacity: 1; stop-color: #e31f2d" /></linearGradient><clipPath
       id="clipPath44"
       clipPathUnits="userSpaceOnUse"><path
         id="path42"
         d="M 0 841.9 H 595.3 V 0 H 0 Z" /></clipPath></defs><g
     transform="matrix(1.3,0,0,-1.3,0,1122.5)"
     id="g10"><g
       id="g12"><g
         id="g14"><g
           id="g20"><g
             id="g22"><path
               id="path36"
               style="fill: url(#linearGradient34); stroke: none"
               d="M 18.7 823.5 c 0 -7.4 5.9 -13.3 13.2 -13.3 v 0 c 7.3 0 13.2 6 13.2 13.3 v 0 c 0 7.4 -5.9 13.3 -13.2 13.3 v 0 c -7.3 0 -13.2 -6 -13.2 -13.3" /></g></g></g></g><g
       id="g38"><g
         clip-path="url(#clipPath44)"
         id="g40"><g
           transform="translate(253.8,420.4)"
           id="g46"><path
             id="path48"
             style="fill: #000; fill-rule: nonzero; stroke: none; fill-opacity: 1"
             d="M -247.1 406 c 1.1 1.6 2.6 2.2 4.4 2.1 c 2.1 -0.2 3.6 -1.1 3.7 -3.5 c 0.2 -2.6 0.1 -5.2 0.1 -7.8 c 0 -0.9 -0.4 -1.2 -1.6 -1.3 c -0.6 0 -1.2 0 -1.7 0.1 c -0.6 0.1 -0.7 0.7 -0.7 1.2 c 0 1.9 0 3.8 0 5.7 c 0 0.7 -0.1 1.5 -0.9 1.8 C -244.5 404.6 -245.3 404.4 -245.9 403.8 C -246.6 403.2 -246.9 402.4 -246.9 401.4 C -247 400 -247 398.5 -247 397.1 c 0 -1.2 -0.3 -1.5 -1.5 -1.6 c -0.5 0 -1 0 -1.5 0.1 c -0.7 0.1 -1 0.4 -1 1.2 c 0 3.3 0 6.5 0 9.8 c 0 0.7 0.3 1.1 1 1.2 c 0.6 0.1 1.3 0 1.9 0 C -247.5 407.7 -247.2 407.4 -247.2 406.8 C -247.2 406.5 -247.1 406.3 -247.1 406" /></g><g
           transform="translate(328.8,419.5)"
           id="g50"><path
             id="path52"
             style="fill: #000; fill-rule: nonzero; stroke: none; fill-opacity: 1"
             d="M -247.1 406 c 1 1.7 2.4 2.8 4.3 2.9 c 2.1 0.1 3.4 -0.8 3.8 -3 c 0.5 0.6 0.9 1.2 1.3 1.6 c 1.4 1.4 3.1 1.8 5 1.1 c 1.4 -0.5 2 -1.7 2 -3.1 c 0.1 -2.6 0.1 -5.3 0.1 -8 c 0 -0.8 -0.5 -1.2 -1.2 -0.8 c -0.2 0.1 -0.3 0.4 -0.3 0.7 c 0 2.4 0 4.7 0 7.1 c 0 0.5 -0.1 1.1 -0.3 1.6 C -232.6 406.9 -233.2 407.4 -234.1 407.5 C -236.6 407.8 -238 405.8 -238.5 404.2 C -238.7 403.6 -238.7 402.9 -238.7 402.2 C -238.8 400.6 -238.8 398.9 -238.7 397.3 C -238.7 396.7 -239 396.7 -239.5 396.7 C -239.9 396.7 -240.2 396.7 -240.2 397.3 C -240.2 399.5 -240.1 401.8 -240.2 404 C -240.2 404.8 -240.4 405.6 -240.7 406.4 C -240.9 407.1 -241.5 407.4 -242.3 407.5 C -244.8 407.8 -246.3 405.8 -246.8 403.9 C -246.9 403.6 -246.9 403.2 -246.9 402.8 C -246.9 401.1 -246.9 399.3 -246.9 397.6 C -246.9 396.8 -247.3 396.5 -248.1 396.7 c -0.2 0.1 -0.3 0.5 -0.3 0.7 c 0 1.8 0 3.7 0 5.5 c 0 1.6 0 3.2 0 4.9 c 0 0.6 0.2 0.8 0.8 0.8 C -247.1 408.6 -247 408.4 -247 407.9 C -247.1 407.2 -247.1 406.6 -247.1 406" /></g><g
           transform="translate(287.9,416.8)"
           id="g54"><path
             id="path56"
             style="fill: #000; fill-rule: nonzero; stroke: none; fill-opacity: 1"
             d="M -247.1 406 c 0 -1.7 0 -3.4 0 -5.1 c 0 -0.4 -0.1 -0.9 -0.1 -1.3 c -0.1 -0.7 -0.5 -1.1 -1.2 -1.2 c -1.2 -0.2 -2.4 0.1 -2.4 1.5 c 0 1.1 0 2.1 0 3.2 c 0 1.5 0 3 0 4.5 c 0 1.3 -0.3 1.6 -1.7 1.6 c -0.6 0 -1.1 0.1 -1.3 0.7 c -0.3 0.7 0 1.3 0.6 1.6 c 1.1 0.4 2.1 1 3 1.7 c 0.3 0.3 0.8 0.4 1.2 0.5 c 0.9 0.2 1.7 -0.4 1.7 -1.3 C -247.1 410.3 -247.2 408.1 -247.2 406 Z" /></g><g
           transform="translate(275.7,416.7)"
           id="g58"><path
             id="path60"
             style="fill: #000; fill-rule: nonzero; stroke: none; fill-opacity: 1"
             d="M -247.1 406 c 0 -1.9 0 -3.8 0 -5.7 c 0 -0.7 -0.1 -1.3 -0.8 -1.7 c -0.8 -0.4 -1.6 -0.4 -2.3 0.1 c -0.4 0.3 -0.6 1 -0.6 1.5 c -0.1 2.4 0 4.8 0 7.3 c 0 1.5 -0.3 1.8 -1.8 1.8 c -0.9 0 -1.4 0.5 -1.3 1.3 c 0.1 0.4 0.4 0.8 0.7 0.9 c 1.1 0.5 2.1 1 3 1.8 c 0.6 0.5 1.3 0.5 2 0.3 C -247.4 413.5 -247.1 412.9 -247.1 411.8 C -247 409.9 -247.1 407.9 -247.1 406" /></g><g
           transform="translate(286.5,428.6)"
           id="g62"><path
             id="path64"
             style="fill: #000; fill-rule: nonzero; stroke: none; fill-opacity: 1"
             d="M -247.1 406 c -2.1 1.3 -4.3 2.2 -6.9 2.2 v -26.5 c -0.9 -0.1 -0.9 -0.1 -0.9 0.7 c 0 8.3 0.1 16.7 0.1 25 c 0 0.3 0 0.5 0 0.8 c -1.5 0.3 -3.4 -0.2 -6.8 -1.8 c 0.1 1.9 2.5 5 6 5.4 C -251.3 412.2 -247.9 409.6 -247.1 406" /></g><g
           transform="translate(318.4,411.3)"
           id="g66"><path
             id="path68"
             style="fill: #000; fill-rule: nonzero; stroke: none; fill-opacity: 1"
             d="M -247.1 406 C -244.5 405.8 -242.3 408.1 -242.3 410.8 C -242.2 413.6 -244.3 415.8 -247 415.8 C -249.7 415.8 -251.7 413.7 -251.8 410.9 C -251.8 408 -249.4 405.8 -247.1 406 M -247 417.1 C -243.6 417.2 -240.7 414.4 -240.7 410.9 C -240.8 407.1 -243.5 404.6 -247 404.6 c -3.7 0 -6.2 2.6 -6.3 6.3 c 0 3.6 2.7 6.2 6.2 6.2" /></g><g
           transform="translate(305.2,422.5)"
           id="g70"><path
             id="path72"
             style="fill: #000; fill-rule: nonzero; stroke: none; fill-opacity: 1"
             d="M -247.1 406 C -245.2 406 -244 405.5 -242.8 404.7 C -242.4 404.4 -242.4 404.1 -242.7 403.8 C -242.9 403.5 -243.1 403.2 -243.6 403.5 c -0.9 0.7 -1.8 1.1 -2.9 1.1 c -2.3 0 -4.4 -1.6 -4.8 -4.1 c -0.4 -2.4 0.9 -4.9 3.2 -5.6 c 1.7 -0.5 3.3 -0.2 4.8 0.9 c 0.3 0.2 0.6 0.4 0.9 0 c 0.3 -0.4 0.3 -0.8 -0.1 -1.1 c -1.3 -0.9 -2.7 -1.4 -4.4 -1.3 c -1.3 0.1 -2.4 0.4 -3.5 1.1 c -1.3 0.9 -2 2.1 -2.3 3.6 c -0.4 1.5 -0.2 2.9 0.4 4.3 C -251.3 404.6 -249.1 406 -247.1 406" /></g><g
           transform="translate(276.1,436.5)"
           id="g74"><path
             id="path76"
             style="fill: #000; fill-rule: nonzero; stroke: none; fill-opacity: 1"
             d="M -247.1 406 c 0 -0.7 -0.5 -1.2 -1 -1.2 c -0.5 0 -1 0.6 -1 1.2 c 0 0.7 0.4 1.2 1.1 1.2 C -247.4 407.1 -247.1 406.7 -247.1 406" /></g><g
           transform="translate(284.3,436.6)"
           id="g78"><path
             id="path80"
             style="fill: #000; fill-rule: nonzero; stroke: none; fill-opacity: 1"
             d="M -247.1 406 c 0 -0.6 -0.5 -1.2 -1 -1.2 c -0.5 0 -1.2 0.7 -1.1 1.2 c 0 0.5 0.5 1.1 1.1 1.1 C -247.5 407 -247.1 406.6 -247.1 406" /></g><g
           transform="translate(294.7,411.2)"
           id="g82"><path
             id="path84"
             style="fill: #000; fill-rule: nonzero; stroke: none; fill-opacity: 1"
             d="M -247.1 406 C -247 406.6 -246.6 407.1 -246 407.1 C -245.5 407.1 -245 406.5 -245 405.9 C -245 405.3 -245.5 404.8 -246.1 404.8 C -246.7 404.8 -247.1 405.3 -247.1 406" /></g></g></g></g></svg>