<svg width="51" height="12" viewBox="0 0 51 12" fill="none" xmlns="http://www.w3.org/2000/svg">
<path d="M18.5989 6.2934H12.9136C13.1738 7.3587 14.0412 8.16427 15.1682 8.16427C15.8044 8.16427 16.4256 7.89272 16.842 7.42409L18.2166 7.45316C17.6117 8.60338 16.4538 9.34038 15.1183 9.34038C13.1616 9.34038 11.6254 7.64297 11.6254 5.72305C11.6254 3.74138 13.1361 2.1189 15.1432 2.1189C17.0881 2.1189 18.6371 3.7164 18.6371 5.64858C18.6366 5.86019 18.6239 6.0827 18.5989 6.2934ZM15.131 3.29546C14.0162 3.29546 12.9886 4.17504 12.9136 5.30211H17.3483C17.2734 4.17504 16.2458 3.29546 15.131 3.29546Z" fill="black"/>
<path d="M24.2943 9.16691V5.43833C24.2943 4.27403 23.9478 3.29546 22.5846 3.29546C21.3218 3.29546 20.7764 4.27449 20.7764 5.42607V9.16691H19.4882V2.30462H20.6897V3.03526H20.7138C21.2092 2.37909 21.9285 2.1189 22.7209 2.1189C23.6994 2.1189 24.6153 2.50261 25.1489 3.3445C25.4831 3.86489 25.5821 4.49654 25.5821 5.10367V9.16646H24.2943V9.16691Z" fill="black"/>
<path d="M32.4314 9.16683V8.18825H32.4064C31.8365 8.98065 30.9329 9.34029 29.9793 9.34029C27.9227 9.34029 26.411 7.80409 26.411 5.76066C26.411 3.7036 27.8977 2.11881 29.9793 2.11881C30.8453 2.11881 31.7621 2.45302 32.3079 3.14688H32.332V0H33.6207V9.16683H32.4314ZM30.0533 3.29537C28.6906 3.29537 27.6993 4.41018 27.6993 5.74794C27.6993 7.03666 28.7278 8.16373 30.0406 8.16373C31.3784 8.16373 32.4314 7.0739 32.4314 5.74794C32.4314 4.37294 31.4528 3.29537 30.0533 3.29537Z" fill="black"/>
<path d="M37.3475 11.4587H36.0098L37.0133 9.03108L34.2765 2.30457H35.6633L37.6818 7.63065L39.7506 2.30457H41.1383L37.3475 11.4587Z" fill="black"/>
<path d="M44.8041 9.34038C42.7847 9.34038 41.1005 7.71744 41.1005 5.68582C41.1005 3.66691 42.8219 2.1189 44.8041 2.1189C46.8107 2.1189 48.5077 3.67917 48.5077 5.71125C48.5077 7.66794 46.8847 9.34038 44.8041 9.34038ZM44.8041 3.29546C43.4663 3.29546 42.3883 4.38574 42.3883 5.72351C42.3883 7.06127 43.4663 8.16427 44.8041 8.16427C46.1541 8.16427 47.2199 7.04901 47.2199 5.7117C47.2199 4.37303 46.1423 3.29546 44.8041 3.29546Z" fill="black"/>
<path d="M49.5597 9.16683V0H50.8484V9.16683H49.5597Z" fill="black"/>
<path d="M1.92456 7.81321C1.98042 8.03117 2.05171 8.20918 2.13481 8.34359C2.217 8.478 2.32417 8.60061 2.45086 8.70823C2.85773 9.0656 3.37494 9.24769 3.98706 9.24769C4.59283 9.24769 5.15909 9.10148 5.67312 8.81449V7.5848C5.14138 7.89767 4.62916 8.0566 4.15054 8.0566C3.49573 8.0566 3.16379 7.65836 3.16379 6.87187V3.51429H5.32438V2.32365H3.16334V0.122192H1.89141V2.32365H0.651733V3.51429H1.8401V6.55763C1.83965 7.17339 1.86826 7.59524 1.92456 7.81321Z" fill="black"/>
<path d="M9.71922 3.45475C10.1179 3.45475 10.5566 3.6759 11.0234 4.11455L11.7213 2.95116C11.1537 2.4285 10.4644 2.19055 10.0616 2.19055H9.97443C9.51443 2.19055 8.74383 2.19055 8.11354 3.20727L8.0872 3.2495L8.09402 2.32406H6.76306V9.12822H8.09402V5.57038C8.09402 5.00049 8.25613 4.50099 8.57626 4.08413C8.89595 3.66636 9.28102 3.45475 9.71922 3.45475Z" fill="black"/>
</svg>
